# Blender 3.3.1
# www.blender.org
mtllib king.mtl
o King
v 0.103174 0.713453 -0.059568
v 0.000000 0.713453 -0.119136
v 0.000000 -0.000000 -0.183016
v 0.000000 0.061477 -0.183016
v 0.158497 -0.000000 -0.091508
v 0.158497 0.061477 -0.091508
v 0.158497 -0.000000 0.091508
v 0.158497 0.061477 0.091508
v 0.000000 -0.000000 0.183016
v 0.000000 0.061477 0.183016
v -0.158497 -0.000000 0.091508
v -0.158497 0.061477 0.091508
v -0.158497 -0.000000 -0.091508
v -0.158497 0.061477 -0.091508
v 0.103174 0.713453 0.059568
v 0.000000 0.713453 0.119136
v -0.103174 0.713453 0.059568
v -0.103174 0.713453 -0.059568
v 0.030549 0.717612 -0.017637
v 0.000000 0.717612 -0.035275
v 0.030549 0.717612 0.017637
v 0.000000 0.717612 0.035275
v -0.030549 0.717612 0.017637
v -0.030549 0.717612 -0.017637
v 0.024251 0.723113 -0.014002
v 0.000000 0.723113 -0.028003
v 0.024251 0.723113 0.014002
v 0.000000 0.723113 0.028003
v -0.024251 0.723113 0.014002
v -0.024251 0.723113 -0.014002
v -0.010645 0.783523 -0.032761
v 0.000000 0.762233 -0.040495
v -0.023803 0.762233 -0.032761
v 0.021290 0.796680 0.000000
v -0.017224 0.796680 -0.012514
v 0.006579 0.796680 -0.020247
v -0.034447 0.783523 0.000000
v 0.027868 0.783523 -0.020248
v 0.006579 0.796680 0.020247
v 0.023803 0.762233 -0.032761
v 0.027868 0.783523 0.020248
v -0.010645 0.783523 0.032761
v -0.023803 0.762233 0.032761
v -0.038513 0.762233 -0.012514
v 0.023803 0.762233 0.032761
v -0.038513 0.762233 0.012514
v 0.034447 0.740943 0.000000
v 0.038513 0.762233 -0.012514
v 0.000000 0.762233 0.040495
v 0.017224 0.727785 -0.012514
v 0.010645 0.740943 -0.032761
v 0.038513 0.762233 0.012514
v 0.017224 0.727785 0.012514
v -0.006579 0.727785 -0.020247
v -0.027868 0.740943 -0.020248
v -0.006579 0.727785 0.020247
v -0.021290 0.727785 0.000000
v -0.027868 0.740943 0.020248
v 0.010645 0.740943 0.032761
v 0.000000 0.802728 0.000000
v 0.036220 0.780343 0.000000
v 0.011192 0.780343 -0.034447
v -0.029303 0.780343 -0.021289
v -0.029303 0.780343 0.021289
v 0.011192 0.780343 0.034447
v 0.029303 0.744122 -0.021289
v -0.011192 0.744122 -0.034447
v -0.036220 0.744123 0.000000
v -0.011192 0.744122 0.034447
v 0.029303 0.744122 0.021289
v 0.019128 0.727710 -0.013897
v -0.017224 0.796680 0.012514
v 0.019128 0.727710 0.013897
v -0.007306 0.727710 -0.022486
v -0.007306 0.727710 0.022486
v -0.023644 0.727710 0.000000
v -0.091569 0.153694 0.052867
v 0.000000 0.153694 0.105735
v 0.091569 0.153694 0.052867
v 0.091569 0.153694 -0.052867
v 0.000000 0.153694 -0.105735
v -0.091569 0.153694 -0.052867
v 0.080009 0.560292 0.046193
v -0.080009 0.560292 -0.046193
v -0.080009 0.560292 0.046193
v 0.000000 0.560292 0.092386
v 0.080009 0.560292 -0.046193
v 0.000000 0.560292 -0.092386
v -0.093640 0.539142 0.054063
v 0.000000 0.539142 0.108127
v 0.093640 0.539142 -0.054063
v 0.000000 0.539142 -0.108127
v 0.093640 0.539142 0.054063
v -0.093640 0.539142 -0.054063
v -0.058315 0.527616 0.033668
v 0.000000 0.527616 0.067337
v 0.058315 0.527616 -0.033668
v 0.000000 0.527616 -0.067337
v 0.058315 0.527616 0.033668
v -0.058315 0.527616 -0.033668
vn -0.9888 -0.1495 -0.0000
vn 0.5000 -0.0000 -0.8660
vn -0.4944 -0.1495 0.8563
vn 1.0000 -0.0000 -0.0000
vn 0.4944 -0.1495 0.8563
vn 0.5000 -0.0000 0.8660
vn 0.4944 -0.1495 -0.8563
vn -0.5000 -0.0000 0.8660
vn -0.4944 -0.1495 -0.8563
vn -0.0572 0.9984 -0.0000
vn -1.0000 -0.0000 -0.0000
vn 0.9888 -0.1495 -0.0000
vn -0.5000 -0.0000 -0.8660
vn -0.0000 -1.0000 -0.0000
vn -0.3289 0.7532 -0.5697
vn 0.0286 0.9984 0.0495
vn 0.0572 0.9984 -0.0000
vn 0.0286 0.9984 -0.0495
vn -0.0286 0.9984 -0.0495
vn -0.0286 0.9984 0.0495
vn 0.3289 0.7532 -0.5697
vn 0.3289 0.7532 0.5697
vn -0.6578 0.7532 -0.0000
vn 0.6578 0.7532 -0.0000
vn -0.3289 0.7532 0.5697
vn 0.6071 -0.7947 -0.0000
vn -0.4516 0.7373 0.5024
vn 0.7002 -0.6617 -0.2680
vn 0.4089 0.6617 -0.6284
vn -0.7240 -0.6617 -0.1947
vn 0.4713 -0.6617 -0.5831
vn 0.9822 -0.1876 -0.0000
vn -0.5746 -0.3304 0.7488
vn -0.4089 -0.6617 0.6284
vn -0.4911 -0.7947 -0.3568
vn -0.8897 -0.3304 -0.3151
vn 0.9921 0.1256 -0.0000
vn -0.7947 -0.1876 0.5773
vn 0.3035 -0.1876 -0.9342
vn -0.0247 0.3304 0.9435
vn -0.9050 0.3304 -0.2680
vn 0.7947 0.1876 -0.5773
vn -0.7002 0.6617 0.2680
vn -0.1876 0.7947 0.5773
vn -0.4516 0.7374 -0.5024
vn 0.8897 0.3304 -0.3151
vn 0.0385 0.6617 -0.7488
vn 0.7002 -0.6617 0.2680
vn 0.7240 0.6617 0.1947
vn 0.7240 0.6617 -0.1947
vn 0.2727 0.7425 -0.6118
vn -0.3035 0.1876 0.9342
vn -0.1024 0.9435 0.3151
vn 0.2727 0.7426 0.6118
vn 0.3066 0.1256 -0.9435
vn 0.0385 0.6617 0.7488
vn 0.6679 0.7443 -0.0000
vn -0.3313 0.9435 -0.0000
vn -0.0247 0.3304 -0.9435
vn -0.5746 -0.3304 -0.7488
vn -0.5346 0.3304 -0.7779
vn 0.5746 0.3304 -0.7488
vn 0.9050 -0.3304 0.2680
vn 0.4911 0.7947 0.3568
vn -0.9822 0.1876 -0.0000
vn 0.0247 -0.3304 0.9435
vn -0.5346 0.3304 0.7779
vn 0.5746 0.3304 0.7488
vn -0.8897 -0.3304 0.3151
vn 0.8897 0.3304 0.3151
vn 0.0247 -0.3304 -0.9435
vn 0.5346 -0.3304 -0.7779
vn -0.6071 0.7947 -0.0000
vn 0.2680 0.9435 0.1947
vn 0.8026 -0.1256 0.5831
vn 0.3035 -0.1876 0.9342
vn -0.9050 0.3304 0.2680
vn -0.3066 -0.1256 0.9435
vn -0.8026 0.1256 -0.5831
vn 0.7947 0.1876 0.5773
vn -0.9921 -0.1256 -0.0000
vn -0.0385 -0.6617 -0.7488
vn -0.8026 0.1256 0.5831
vn 0.4089 0.6617 0.6284
vn -0.4911 -0.7947 0.3568
vn -0.3035 0.1876 -0.9342
vn 0.3066 0.1256 0.9435
vn 0.8026 -0.1256 -0.5831
vn 0.5346 -0.3304 0.7779
vn 0.9050 -0.3304 -0.2680
vn -0.3066 -0.1256 -0.9435
vn -0.7947 -0.1876 -0.5773
vn 0.1876 -0.7947 -0.5773
vn -0.7002 0.6617 -0.2680
vn -0.4089 -0.6617 -0.6284
vn 0.4911 0.7947 -0.3568
vn -0.7240 -0.6617 0.1947
vn -0.4713 0.6617 0.5831
vn 0.2680 0.9435 -0.1947
vn -0.1024 0.9435 -0.3151
vn -0.1876 0.7947 -0.5773
vn -0.4713 0.6617 -0.5831
vn -0.0385 -0.6617 0.7488
vn 0.1876 -0.7947 0.5773
vn 0.4713 -0.6617 0.5831
vn -0.9914 0.1310 -0.0000
vn 0.0392 0.9992 -0.0000
vn 0.0121 0.9992 -0.0373
vn -0.0318 0.9992 -0.0231
vn -0.0317 0.9992 0.0231
vn 0.0121 0.9992 0.0373
vn 0.8093 0.5874 -0.0000
vn -0.4047 0.5874 -0.7009
vn 0.4047 0.5874 -0.7009
vn 0.4047 0.5874 0.7009
vn -0.4047 0.5874 0.7009
vn -0.8093 0.5874 -0.0000
vn 0.8405 0.5418 -0.0000
vn -0.4203 0.5418 -0.7279
vn 0.4203 0.5418 -0.7279
vn 0.4203 0.5418 0.7279
vn -0.4203 0.5418 0.7279
vn -0.8405 0.5418 -0.0000
vn -0.3102 -0.9507 -0.0000
vn -0.1551 -0.9507 0.2686
vn 0.1551 -0.9507 0.2686
vn 0.1551 -0.9507 -0.2686
vn -0.1551 -0.9507 -0.2686
vn 0.3102 -0.9507 -0.0000
vn 0.9961 0.0886 -0.0000
vn -0.4980 0.0886 -0.8626
vn 0.4980 0.0886 -0.8626
vn 0.4980 0.0886 0.8626
vn -0.4980 0.0886 0.8626
vn -0.9961 0.0886 -0.0000
vt 0.833333 1.000000
vt 1.000000 1.000000
vt -0.000000 1.000000
vt 1.000000 0.500000
vt -0.000000 0.500000
vt 0.750000 0.490000
vt -0.000000 1.000000
vt 1.000000 1.000000
vt 0.833333 0.500000
vt 0.957846 0.370000
vt 0.833333 1.000000
vt 0.666667 0.500000
vt 0.957846 0.130000
vt 0.666667 1.000000
vt 0.500000 0.500000
vt 0.750000 0.010000
vt 0.500000 1.000000
vt 0.333333 0.500000
vt 0.542154 0.130000
vt 0.333333 1.000000
vt 0.166667 0.500000
vt 0.542154 0.370000
vt 0.166667 1.000000
vt 0.666667 1.000000
vt 0.500000 1.000000
vt 0.333333 1.000000
vt 0.166667 1.000000
vt 0.833333 1.000000
vt -0.000000 1.000000
vt 1.000000 1.000000
vt 0.666667 1.000000
vt 0.500000 1.000000
vt 0.333333 1.000000
vt 0.166667 1.000000
vt 0.833333 1.000000
vt -0.000000 1.000000
vt 1.000000 1.000000
vt 0.666667 1.000000
vt 0.500000 1.000000
vt 0.333333 1.000000
vt 0.166667 1.000000
vt 0.636364 0.314921
vt 0.590909 0.236191
vt 0.681818 0.236191
vt 0.318182 0.393651
vt 0.409092 0.393651
vt 0.772727 0.393651
vt 0.681818 0.393651
vt 0.500000 0.393651
vt 0.590909 0.393651
vt 0.818182 0.314921
vt 0.454546 0.314921
vt 0.136365 0.393651
vt 0.227273 0.393651
vt 0.500000 0.236191
vt 0.272728 0.314921
vt 0.090910 0.314921
vt 0.045455 0.236191
vt 0.954545 0.236191
vt 0.772727 0.236191
vt 0.227273 0.236191
vt 0.863636 0.236191
vt 0.363637 0.157461
vt 0.409092 0.236191
vt 0.136365 0.236191
vt 0.409092 0.078731
vt 0.500000 0.078731
vt 0.545455 0.157461
vt 0.318182 0.236191
vt 0.227273 0.078731
vt 0.318182 0.078731
vt 0.681818 0.078731
vt 0.590909 0.078731
vt 0.727273 0.157461
vt 0.136365 0.078731
vt 0.954545 0.078731
vt 0.863636 0.078731
vt 0.772727 0.078731
vt 0.909091 0.157461
vt 0.181819 0.157461
vt 0.090910 0.472382
vt 0.818182 0.472382
vt 0.272728 0.472382
vt 0.454546 0.472382
vt 0.636364 0.472382
vt 0.363637 0.314921
vt 0.545455 0.314921
vt 0.727273 0.314921
vt 0.909091 0.314921
vt 0.000000 0.314921
vt 0.181819 0.314921
vt 0.454546 0.157461
vt 0.636364 0.157461
vt 0.818182 0.157461
vt 1.000000 0.157461
vt 0.090910 0.157461
vt 0.272728 0.157461
vt 0.000000 0.000000
vt 0.863636 0.393651
vt 0.045455 0.393651
vt 0.000000 0.000000
vt 0.000000 0.000000
vt 0.000000 0.000000
vt 0.000000 0.000000
vt 0.333333 1.000000
vt 0.500000 1.000000
vt 0.666667 1.000000
vt 0.833333 1.000000
vt -0.000000 1.000000
vt 1.000000 1.000000
vt 0.166667 1.000000
vt 0.666667 1.000000
vt 0.166667 1.000000
vt 0.333333 1.000000
vt 0.500000 1.000000
vt 0.833333 1.000000
vt -0.000000 1.000000
vt 1.000000 1.000000
vt 0.333333 1.000000
vt 0.500000 1.000000
vt 0.833333 1.000000
vt 1.000000 1.000000
vt -0.000000 1.000000
vt 0.666667 1.000000
vt 0.166667 1.000000
vt 0.333333 1.000000
vt 0.500000 1.000000
vt 0.833333 1.000000
vt -0.000000 1.000000
vt 1.000000 1.000000
vt 0.666667 1.000000
vt 0.166667 1.000000
s 0
usemtl Material.002
f 84/113/1 85/114/1 17/26/1 18/27/1
f 3/4/2 4/8/2 6/11/2 5/9/2
f 85/114/3 86/115/3 16/25/3 17/26/3
f 5/9/4 6/11/4 8/14/4 7/12/4
f 86/115/5 83/112/5 15/24/5 16/25/5
f 7/12/6 8/14/6 10/17/6 9/15/6
f 87/116/7 88/118/7 2/2/7 1/1/7
f 9/15/8 10/17/8 12/20/8 11/18/8
f 88/117/9 84/113/9 18/27/9 2/3/9
f 18/27/10 17/26/10 23/33/10 24/34/10
f 11/18/11 12/20/11 14/23/11 13/21/11
f 83/112/12 87/116/12 1/1/12 15/24/12
f 13/21/13 14/23/13 4/7/13 3/5/13
f 3/6/14 5/10/14 7/13/14 9/16/14 11/19/14 13/22/14
f 20/29/15 24/34/15 30/41/15 26/36/15
f 16/25/16 15/24/16 21/31/16 22/32/16
f 15/24/17 1/1/17 19/28/17 21/31/17
f 1/1/18 2/2/18 20/30/18 19/28/18
f 2/3/19 18/27/19 24/34/19 20/29/19
f 17/26/20 16/25/20 22/32/20 23/33/20
f 19/28/21 20/30/21 26/37/21 25/35/21
f 22/32/22 21/31/22 27/38/22 28/39/22
f 24/34/23 23/33/23 29/40/23 30/41/23
f 21/31/24 19/28/24 25/35/24 27/38/24
f 23/33/25 22/32/25 28/39/25 29/40/25
f 47/63/26 53/71/26 50/66/26
f 29/40/27 28/39/27 75/103/27 76/104/27
f 47/63/28 50/66/28 66/92/28
f 38/52/29 62/87/29 36/49/29
f 57/78/30 68/94/30 55/74/30
f 50/67/31 51/68/31 66/92/31
f 52/69/32 47/63/32 48/64/32
f 58/79/33 69/95/33 43/59/33
f 56/76/34 69/95/34 58/79/34
f 54/72/35 57/78/35 55/74/35
f 55/74/36 68/94/36 44/60/36
f 52/69/37 48/64/37 61/86/37
f 46/62/38 58/79/38 43/59/38
f 40/55/39 51/68/39 32/43/39
f 49/65/40 65/91/40 42/57/40
f 44/60/41 37/51/41 63/88/41
f 48/64/42 40/55/42 38/52/42
f 37/51/43 64/89/43 72/99/43
f 72/100/44 42/57/44 39/53/44
f 26/37/45 30/41/45 76/104/45 74/102/45
f 48/64/46 38/52/46 61/86/46
f 62/87/47 31/42/47 36/50/47
f 70/97/48 53/71/48 47/63/48
f 41/56/49 61/86/49 34/45/49
f 61/86/50 38/52/50 34/46/50
f 25/35/51 26/37/51 74/102/51 71/98/51
f 43/58/52 49/65/52 42/57/52
f 72/100/53 39/53/53 60/81/53
f 28/39/54 27/38/54 73/101/54 75/103/54
f 40/55/55 32/43/55 62/87/55
f 42/57/56 65/91/56 39/53/56
f 27/38/57 25/35/57 71/98/57 73/101/57
f 35/47/58 72/99/58 60/82/58
f 32/43/59 31/42/59 62/87/59
f 67/93/60 55/74/60 33/44/60
f 33/44/61 63/88/61 31/42/61
f 40/55/62 62/87/62 38/52/62
f 70/97/63 47/63/63 52/69/63
f 39/54/64 41/56/64 34/45/64
f 44/60/65 46/62/65 37/51/65
f 69/96/66 59/80/66 49/65/66
f 43/58/67 42/57/67 64/90/67
f 45/61/68 41/56/68 65/91/68
f 68/94/69 58/79/69 46/62/69
f 52/69/70 61/86/70 41/56/70
f 51/68/71 67/93/71 32/43/71
f 66/92/72 51/68/72 40/55/72
f 35/47/73 37/51/73 72/99/73
f 39/54/74 34/45/74 60/83/74
f 70/97/75 52/69/75 45/61/75
f 49/65/76 59/80/76 45/61/76
f 46/62/77 64/89/77 37/51/77
f 69/96/78 49/65/78 43/58/78
f 33/44/79 44/60/79 63/88/79
f 45/61/80 52/69/80 41/56/80
f 68/94/81 46/62/81 44/60/81
f 54/73/82 67/93/82 51/68/82
f 46/62/83 43/59/83 64/89/83
f 65/91/84 41/56/84 39/54/84
f 57/77/85 56/76/85 58/79/85
f 32/43/86 33/44/86 31/42/86
f 49/65/87 45/61/87 65/91/87
f 66/92/88 40/55/88 48/64/88
f 59/80/89 70/97/89 45/61/89
f 47/63/90 66/92/90 48/64/90
f 67/93/91 33/44/91 32/43/91
f 33/44/92 55/74/92 44/60/92
f 50/67/93 54/73/93 51/68/93
f 63/88/94 37/51/94 35/47/94
f 54/72/95 55/74/95 67/93/95
f 34/46/96 38/52/96 36/49/96
f 57/77/97 58/79/97 68/94/97
f 64/90/98 42/57/98 72/100/98
f 34/46/99 36/49/99 60/84/99
f 36/50/100 35/48/100 60/85/100
f 36/50/101 31/42/101 35/48/101
f 31/42/102 63/88/102 35/48/102
f 56/75/103 59/80/103 69/96/103
f 56/75/104 53/70/104 59/80/104
f 53/70/105 70/97/105 59/80/105
f 29/40/106 76/104/106 30/41/106
f 53/71/107 73/101/107 71/98/107 50/66/107
f 74/102/108 54/73/108 50/67/108 71/98/108
f 54/73/109 74/102/109 76/104/109 57/78/109
f 57/78/110 76/104/110 75/103/110 56/76/110
f 56/76/111 75/103/111 73/101/111 53/71/111
f 8/14/112 6/11/112 80/108/112 79/107/112
f 4/7/113 14/23/113 82/111/113 81/109/113
f 6/11/114 4/8/114 81/110/114 80/108/114
f 10/17/115 8/14/115 79/107/115 78/106/115
f 12/20/116 10/17/116 78/106/116 77/105/116
f 14/23/117 12/20/117 77/105/117 82/111/117
f 93/124/118 91/121/118 87/116/118 83/112/118
f 92/123/119 94/125/119 84/113/119 88/117/119
f 91/121/120 92/122/120 88/118/120 87/116/120
f 90/120/121 93/124/121 83/112/121 86/115/121
f 89/119/122 90/120/122 86/115/122 85/114/122
f 94/125/123 89/119/123 85/114/123 84/113/123
f 100/132/124 95/126/124 89/119/124 94/125/124
f 95/126/125 96/127/125 90/120/125 89/119/125
f 96/127/126 99/131/126 93/124/126 90/120/126
f 97/128/127 98/130/127 92/122/127 91/121/127
f 98/129/128 100/132/128 94/125/128 92/123/128
f 99/131/129 97/128/129 91/121/129 93/124/129
f 79/107/130 80/108/130 97/128/130 99/131/130
f 81/109/131 82/111/131 100/132/131 98/129/131
f 80/108/132 81/110/132 98/130/132 97/128/132
f 78/106/133 79/107/133 99/131/133 96/127/133
f 77/105/134 78/106/134 96/127/134 95/126/134
f 82/111/135 77/105/135 95/126/135 100/132/135
