# Blender 3.3.1
# www.blender.org
mtllib knight.mtl
o Knight
v 0.130602 0.000000 0.075403
v 0.130602 0.061477 0.075403
v 0.000000 0.000000 0.150806
v 0.000000 0.061477 0.150806
v -0.130602 0.000000 0.075403
v -0.130602 0.061477 0.075403
v -0.092009 0.146056 0.053629
v 0.000879 0.146056 0.107257
v 0.093766 0.146056 0.053629
v 0.131920 0.217288 0.035068
v 0.033719 0.227110 0.106846
v -0.069666 0.231284 0.057764
v 0.137068 0.289707 0.046775
v 0.056051 0.289707 0.093550
v -0.024966 0.289707 0.046775
v 0.116272 0.372466 0.025610
v 0.054737 0.358016 0.067010
v -0.004170 0.338968 0.037802
v 0.049391 0.444825 0.047821
v 0.009855 0.406073 0.081721
v -0.017201 0.336341 0.059862
v -0.066646 0.446357 0.029101
v -0.072684 0.398081 0.065477
v -0.060332 0.357797 0.059862
v -0.094062 0.267788 0.013958
v -0.141318 0.343869 0.009467
v -0.147903 0.305445 0.035541
v -0.125151 0.276108 0.020151
v -0.130602 0.000000 0.000000
v -0.130602 0.061477 0.000000
v -0.092009 0.146056 0.000000
v -0.069666 0.232023 0.000000
v -0.024966 0.289707 0.000000
v -0.004170 0.338968 0.000000
v -0.017201 0.336341 0.000000
v -0.094062 0.267788 0.000000
v -0.125151 0.276108 0.000000
v 0.130602 0.000000 0.000000
v 0.130602 0.061477 0.000000
v 0.093766 0.146056 0.000000
v 0.131920 0.217288 0.000000
v 0.137068 0.289707 0.000000
v 0.116272 0.372466 0.000000
v 0.049391 0.444825 0.000000
v -0.066646 0.446357 0.000000
v -0.141318 0.343869 0.000000
v -0.147903 0.305445 0.000000
v 0.035040 0.448226 0.066832
v 0.020510 0.433984 0.074869
v -0.007604 0.448789 0.055531
v -0.009823 0.431047 0.068900
v 0.059161 0.487364 0.069883
v 0.051288 0.485844 0.075151
v 0.041320 0.488003 0.062418
v 0.038192 0.485716 0.071410
v 0.019922 0.455981 0.000000
v 0.019922 0.455981 0.026771
v -0.036046 0.456720 0.000000
v -0.036046 0.456720 0.011940
v 0.130602 0.000000 -0.075403
v 0.130602 0.061477 -0.075403
v 0.000000 0.000000 -0.150806
v 0.000000 0.061477 -0.150806
v -0.130602 0.000000 -0.075403
v -0.130602 0.061477 -0.075403
v -0.092009 0.146056 -0.053629
v 0.000879 0.146056 -0.107257
v 0.093766 0.146056 -0.053629
v 0.131920 0.217288 -0.035068
v 0.033719 0.227110 -0.106846
v -0.069666 0.231284 -0.057764
v 0.137068 0.289707 -0.046775
v 0.056051 0.289707 -0.093550
v -0.024966 0.289707 -0.046775
v 0.116272 0.372466 -0.025610
v 0.054737 0.358016 -0.067010
v -0.004170 0.338968 -0.037802
v 0.049391 0.444825 -0.047821
v 0.009855 0.406073 -0.081721
v -0.017201 0.336341 -0.059862
v -0.066646 0.446357 -0.029101
v -0.072684 0.398081 -0.065477
v -0.060332 0.357797 -0.059862
v -0.094062 0.267788 -0.013958
v -0.141318 0.343869 -0.009467
v -0.147903 0.305445 -0.035541
v -0.125151 0.276108 -0.020151
v 0.035040 0.448226 -0.066832
v 0.020510 0.433984 -0.074869
v -0.007604 0.448789 -0.055531
v -0.009823 0.431047 -0.068900
v 0.059161 0.487364 -0.069883
v 0.051288 0.485844 -0.075151
v 0.041320 0.488003 -0.062418
v 0.038192 0.485716 -0.071410
v 0.019922 0.455981 -0.026771
v -0.036046 0.456720 -0.011940
vn 1.0000 -0.0000 -0.0000
vn 0.5000 -0.0000 0.8660
vn -0.5000 -0.0000 0.8660
vn -0.9676 0.2525 0.0017
vn 0.5374 -0.1471 0.8304
vn 0.4575 0.4033 0.7925
vn -0.4558 0.4112 0.7894
vn -0.9098 0.4151 -0.0000
vn -0.4574 0.1321 0.8794
vn -0.7921 0.6103 0.0043
vn 0.5450 -0.1011 0.8323
vn -0.4167 0.3951 0.8187
vn -0.4851 0.3255 0.8116
vn -0.9213 0.3889 -0.0000
vn 0.4728 0.3275 0.8180
vn 0.1976 -0.9803 -0.0000
vn 0.5079 0.2156 0.8340
vn 0.0862 -0.5581 0.8253
vn -0.1483 -0.2209 0.9640
vn -0.0707 -0.3206 0.9446
vn -0.3497 0.5913 0.7267
vn -0.2585 -0.9660 -0.0000
vn 0.6656 -0.7463 -0.0000
vn -0.7505 0.4547 0.4796
vn -0.0949 -0.4238 0.9008
vn -1.0000 -0.0000 -0.0000
vn -0.8082 0.5889 -0.0000
vn -0.3208 0.9472 -0.0000
vn 0.7344 0.6788 -0.0000
vn 0.9698 0.2437 -0.0000
vn 0.9975 -0.0709 -0.0000
vn 0.8815 -0.4722 -0.0000
vn 0.9168 0.3993 -0.0000
vn -0.9856 0.1689 -0.0000
vn -0.7902 -0.6128 -0.0000
vn -0.2255 0.1415 0.9639
vn 0.7077 -0.1816 0.6828
vn -0.2123 0.3087 0.9272
vn -0.0611 0.9751 0.2132
vn 0.6639 -0.4231 0.6166
vn 0.2902 -0.1507 -0.9450
vn -0.6543 0.6344 0.4117
vn 0.0132 0.9999 -0.0000
vn -0.0000 -0.0000 -1.0000
vn 0.3541 0.9352 -0.0000
vn -0.1639 0.9462 0.2791
vn -0.0414 0.9779 0.2049
vn 0.3118 0.9479 0.0658
vn 0.5000 -0.0000 -0.8660
vn -0.5000 -0.0000 -0.8660
vn -0.9676 0.2525 -0.0017
vn 0.5374 -0.1471 -0.8304
vn 0.4575 0.4033 -0.7925
vn -0.4558 0.4112 -0.7894
vn -0.4574 0.1321 -0.8794
vn -0.7921 0.6103 -0.0043
vn 0.5450 -0.1011 -0.8323
vn -0.4167 0.3951 -0.8187
vn -0.4851 0.3255 -0.8116
vn 0.4728 0.3275 -0.8180
vn 0.5079 0.2156 -0.8340
vn 0.0862 -0.5581 -0.8253
vn -0.1483 -0.2209 -0.9640
vn -0.0707 -0.3206 -0.9446
vn -0.3497 0.5913 -0.7267
vn -0.7505 0.4547 -0.4796
vn -0.0949 -0.4238 -0.9008
vn -0.2255 0.1415 -0.9639
vn 0.7077 -0.1816 -0.6828
vn -0.2123 0.3087 -0.9272
vn -0.0611 0.9751 -0.2132
vn 0.6639 -0.4231 -0.6166
vn 0.2902 -0.1507 0.9450
vn -0.6543 0.6344 -0.4117
vn -0.1639 0.9462 -0.2791
vn -0.0414 0.9779 -0.2049
vn 0.3118 0.9479 -0.0658
vn -0.0000 -1.0000 -0.0000
vt 0.666667 0.500000
vt 0.666667 1.000000
vt 0.500000 0.500000
vt 0.500000 1.000000
vt 0.333333 0.500000
vt 0.333333 1.000000
vt 0.333333 1.000000
vt 0.500000 1.000000
vt 0.666667 1.000000
vt 0.666667 1.000000
vt 0.500000 1.000000
vt 0.333333 1.000000
vt 0.666667 1.000000
vt 0.500000 1.000000
vt 0.333333 1.000000
vt 0.666667 1.000000
vt 0.500000 1.000000
vt 0.333333 1.000000
vt 0.666667 1.000000
vt 0.500000 1.000000
vt 0.333333 1.000000
vt 0.666667 1.000000
vt 0.500000 1.000000
vt 0.333333 1.000000
vt 0.333333 1.000000
vt 0.666667 1.000000
vt 0.500000 1.000000
vt 0.333333 1.000000
vt 0.250000 0.500000
vt 0.250000 1.000000
vt 0.250000 1.000000
vt 0.250000 1.000000
vt 0.250000 1.000000
vt 0.250000 1.000000
vt 0.250000 1.000000
vt 0.250000 1.000000
vt 0.250000 1.000000
vt 0.750000 0.500000
vt 0.750000 1.000000
vt 0.750000 1.000000
vt 0.750000 1.000000
vt 0.750000 1.000000
vt 0.750000 1.000000
vt 0.000000 0.000000
vt 0.750000 1.000000
vt 0.000000 0.000000
vt 0.750000 1.000000
vt 0.750000 1.000000
vt 0.000000 0.000000
vt 0.666667 1.000000
vt 0.500000 1.000000
vt 0.666667 1.000000
vt 0.500000 1.000000
vt 0.666667 1.000000
vt 0.500000 1.000000
vt 0.666667 1.000000
vt 0.500000 1.000000
vt 0.000000 0.000000
vt 0.750000 1.000000
vt 0.666667 1.000000
vt 0.000000 0.000000
vt 0.750000 1.000000
vt 0.666667 1.000000
vt 0.666667 0.500000
vt 0.666667 1.000000
vt 0.500000 0.500000
vt 0.500000 1.000000
vt 0.333333 0.500000
vt 0.333333 1.000000
vt 0.333333 1.000000
vt 0.500000 1.000000
vt 0.666667 1.000000
vt 0.666667 1.000000
vt 0.500000 1.000000
vt 0.333333 1.000000
vt 0.666667 1.000000
vt 0.500000 1.000000
vt 0.333333 1.000000
vt 0.666667 1.000000
vt 0.500000 1.000000
vt 0.333333 1.000000
vt 0.666667 1.000000
vt 0.500000 1.000000
vt 0.333333 1.000000
vt 0.666667 1.000000
vt 0.500000 1.000000
vt 0.333333 1.000000
vt 0.333333 1.000000
vt 0.666667 1.000000
vt 0.500000 1.000000
vt 0.333333 1.000000
vt 0.666667 1.000000
vt 0.500000 1.000000
vt 0.666667 1.000000
vt 0.500000 1.000000
vt 0.666667 1.000000
vt 0.500000 1.000000
vt 0.666667 1.000000
vt 0.500000 1.000000
vt 0.666667 1.000000
vt 0.666667 1.000000
s 0
usemtl Material.006
f 38/38/1 39/39/1 2/2/1 1/1/1
f 1/1/2 2/2/2 4/4/2 3/3/2
f 3/3/3 4/4/3 6/6/3 5/5/3
f 31/31/4 7/7/4 12/12/4 32/32/4
f 8/8/5 9/9/5 10/10/5 11/11/5
f 4/4/6 2/2/6 9/9/6 8/8/6
f 6/6/7 4/4/7 8/8/7 7/7/7
f 30/30/8 6/6/8 7/7/8 31/31/8
f 7/7/9 8/8/9 11/11/9 12/12/9
f 32/32/10 12/12/10 15/15/10 33/33/10
f 11/11/11 10/10/11 13/13/11 14/14/11
f 12/12/12 11/11/12 14/14/12 15/15/12
f 15/15/13 14/14/13 17/17/13 18/18/13
f 33/33/14 15/15/14 18/18/14 34/34/14
f 14/14/15 13/13/15 16/16/15 17/17/15
f 34/34/16 18/18/16 21/21/16 35/35/16
f 17/17/17 16/16/17 19/19/17 20/20/17
f 18/18/18 17/17/18 20/20/18 21/21/18
f 21/21/19 20/20/19 23/23/19 24/24/19
f 24/24/20 23/23/20 27/27/20 28/28/20
f 22/22/21 23/23/21 51/53/21 50/52/21
f 36/36/22 25/25/22 28/28/22 37/37/22
f 35/35/23 21/21/23 25/25/23 36/36/23
f 23/23/24 22/22/24 26/26/24 27/27/24
f 21/21/25 24/24/25 28/28/25 25/25/25
f 5/5/26 6/6/26 30/30/26 29/29/26
f 22/22/27 45/47/27 46/48/27 26/26/27
f 45/47/28 22/22/28 59/63/28 58/62/28
f 16/16/29 43/43/29 44/45/29 19/19/29
f 13/13/30 42/42/30 43/43/30 16/16/30
f 10/10/31 41/41/31 42/42/31 13/13/31
f 9/9/32 40/40/32 41/41/32 10/10/32
f 2/2/33 39/39/33 40/40/33 9/9/33
f 47/49/34 27/27/34 26/26/34 46/48/34
f 27/27/35 47/49/35 37/37/35 28/28/35
f 51/53/36 49/51/36 53/55/36 55/57/36
f 20/20/37 19/19/37 48/50/37 49/51/37
f 23/23/38 20/20/38 49/51/38 51/53/38
f 53/55/39 52/54/39 54/56/39 55/57/39
f 49/51/40 48/50/40 52/54/40 53/55/40
f 48/50/41 50/52/41 54/56/41 52/54/41
f 50/52/42 51/53/42 55/57/42 54/56/42
f 57/60/43 56/59/43 58/62/43 59/63/43
f 44/44/44 45/46/44 58/61/44 56/58/44
f 19/19/45 44/45/45 56/59/45 57/60/45
f 22/22/46 50/52/46 59/63/46
f 59/63/47 50/52/47 57/60/47
f 50/52/47 48/50/47 57/60/47
f 19/19/48 57/60/48 48/50/48
f 38/38/1 60/64/1 61/65/1 39/39/1
f 60/64/49 62/66/49 63/67/49 61/65/49
f 62/66/50 64/68/50 65/69/50 63/67/50
f 31/31/51 32/32/51 71/75/51 66/70/51
f 67/71/52 70/74/52 69/73/52 68/72/52
f 63/67/53 67/71/53 68/72/53 61/65/53
f 65/69/54 66/70/54 67/71/54 63/67/54
f 30/30/8 31/31/8 66/70/8 65/69/8
f 66/70/55 71/75/55 70/74/55 67/71/55
f 32/32/56 33/33/56 74/78/56 71/75/56
f 70/74/57 73/77/57 72/76/57 69/73/57
f 71/75/58 74/78/58 73/77/58 70/74/58
f 74/78/59 77/81/59 76/80/59 73/77/59
f 33/33/14 34/34/14 77/81/14 74/78/14
f 73/77/60 76/80/60 75/79/60 72/76/60
f 34/34/16 35/35/16 80/84/16 77/81/16
f 76/80/61 79/83/61 78/82/61 75/79/61
f 77/81/62 80/84/62 79/83/62 76/80/62
f 80/84/63 83/87/63 82/86/63 79/83/63
f 83/87/64 87/91/64 86/90/64 82/86/64
f 81/85/65 90/94/65 91/95/65 82/86/65
f 36/36/22 37/37/22 87/91/22 84/88/22
f 35/35/23 36/36/23 84/88/23 80/84/23
f 82/86/66 86/90/66 85/89/66 81/85/66
f 80/84/67 84/88/67 87/91/67 83/87/67
f 64/68/26 29/29/26 30/30/26 65/69/26
f 81/85/27 85/89/27 46/48/27 45/47/27
f 45/47/28 58/62/28 97/101/28 81/85/28
f 75/79/29 78/82/29 44/45/29 43/43/29
f 72/76/30 75/79/30 43/43/30 42/42/30
f 69/73/31 72/76/31 42/42/31 41/41/31
f 68/72/32 69/73/32 41/41/32 40/40/32
f 61/65/33 68/72/33 40/40/33 39/39/33
f 47/49/34 46/48/34 85/89/34 86/90/34
f 86/90/35 87/91/35 37/37/35 47/49/35
f 91/95/68 95/99/68 93/97/68 89/93/68
f 79/83/69 89/93/69 88/92/69 78/82/69
f 82/86/70 91/95/70 89/93/70 79/83/70
f 93/97/71 95/99/71 94/98/71 92/96/71
f 89/93/72 93/97/72 92/96/72 88/92/72
f 88/92/73 92/96/73 94/98/73 90/94/73
f 90/94/74 94/98/74 95/99/74 91/95/74
f 96/100/43 97/101/43 58/62/43 56/59/43
f 78/82/45 96/100/45 56/59/45 44/45/45
f 81/85/75 97/101/75 90/94/75
f 97/101/76 96/100/76 90/94/76
f 90/94/76 96/100/76 88/92/76
f 78/82/77 88/92/77 96/100/77
f 1/1/78 3/3/78 5/5/78 29/29/78 64/68/78 62/66/78 60/64/78 38/38/78
