# Blender 3.3.1
# www.blender.org
mtllib queen.mtl
o Queen
v 0.000000 -0.000000 -0.183016
v 0.000000 0.061477 -0.183016
v 0.158497 -0.000000 -0.091508
v 0.158497 0.061477 -0.091508
v 0.158497 -0.000000 0.091508
v 0.158497 0.061477 0.091508
v 0.000000 -0.000000 0.183016
v 0.000000 0.061477 0.183016
v -0.158497 -0.000000 0.091508
v -0.158497 0.061477 0.091508
v -0.158497 -0.000000 -0.091508
v -0.158497 0.061477 -0.091508
v 0.030549 0.717574 -0.017637
v 0.000000 0.717574 -0.035275
v 0.030549 0.717574 0.017637
v 0.000000 0.717574 0.035275
v -0.030549 0.717574 0.017637
v -0.030549 0.717574 -0.017637
v 0.024251 0.723074 -0.014002
v 0.000000 0.723074 -0.028003
v 0.024251 0.723074 0.014002
v 0.000000 0.723074 0.028003
v -0.024251 0.723074 0.014002
v -0.024251 0.723074 -0.014002
v -0.010645 0.783484 -0.032761
v 0.000000 0.762194 -0.040495
v -0.023803 0.762194 -0.032761
v 0.021290 0.796641 0.000000
v -0.017224 0.796641 -0.012514
v 0.006579 0.796641 -0.020247
v -0.034447 0.783484 0.000000
v 0.027868 0.783484 -0.020248
v 0.006579 0.796641 0.020247
v 0.023803 0.762194 -0.032761
v 0.027868 0.783484 0.020248
v -0.010645 0.783484 0.032761
v -0.023803 0.762194 0.032761
v -0.038513 0.762194 -0.012514
v 0.023803 0.762194 0.032761
v -0.038513 0.762194 0.012514
v 0.034447 0.740904 0.000000
v 0.038513 0.762194 -0.012514
v 0.000000 0.762194 0.040495
v 0.017224 0.727746 -0.012514
v 0.010645 0.740904 -0.032761
v 0.038513 0.762194 0.012514
v 0.017224 0.727746 0.012514
v -0.006579 0.727746 -0.020247
v -0.027868 0.740904 -0.020248
v -0.006579 0.727746 0.020247
v -0.021290 0.727746 0.000000
v -0.027868 0.740904 0.020248
v 0.010645 0.740904 0.032761
v 0.000000 0.802689 0.000000
v 0.036220 0.780304 0.000000
v 0.011192 0.780304 -0.034447
v -0.029303 0.780304 -0.021289
v -0.029303 0.780304 0.021289
v 0.011192 0.780304 0.034447
v 0.029303 0.744084 -0.021289
v -0.011192 0.744084 -0.034447
v -0.036220 0.744084 0.000000
v -0.011192 0.744084 0.034447
v 0.029303 0.744084 0.021289
v 0.019128 0.727672 -0.013897
v -0.017224 0.796641 0.012514
v 0.019128 0.727672 0.013897
v -0.007306 0.727672 -0.022486
v -0.007306 0.727672 0.022486
v -0.023644 0.727672 0.000000
v -0.091569 0.153694 0.052867
v 0.000000 0.153694 0.105735
v 0.091569 0.153694 0.052867
v 0.091569 0.153694 -0.052867
v 0.000000 0.153694 -0.105735
v -0.091569 0.153694 -0.052867
v -0.058315 0.585089 -0.033668
v 0.058315 0.585088 0.033668
v 0.000000 0.585088 -0.067337
v 0.058315 0.585088 -0.033668
v 0.000000 0.585088 0.067337
v -0.058315 0.585088 0.033668
v -0.093640 0.573562 0.054063
v 0.000000 0.573562 0.108127
v 0.093640 0.573562 -0.054063
v 0.000000 0.573562 -0.108127
v 0.093640 0.573562 0.054063
v -0.093640 0.573563 -0.054063
v -0.058315 0.562036 0.033668
v 0.000000 0.562036 0.067337
v 0.058315 0.562036 -0.033668
v 0.000000 0.562036 -0.067337
v 0.058315 0.562036 0.033668
v -0.058315 0.562037 -0.033668
v -0.058315 0.616669 -0.033668
v 0.058315 0.616668 0.033668
v 0.000000 0.616668 -0.067337
v 0.058315 0.616668 -0.033668
v 0.000000 0.616668 0.067337
v -0.058315 0.616668 0.033668
v -0.086828 0.676472 -0.050130
v 0.086828 0.676471 0.050130
v 0.000000 0.676471 -0.100260
v 0.086828 0.676471 -0.050130
v 0.000000 0.676471 0.100260
v -0.086828 0.676471 0.050130
v -0.066568 0.708498 -0.038433
v 0.066568 0.708498 0.038433
v 0.000000 0.708498 -0.076866
v 0.066568 0.708498 -0.038433
v 0.000000 0.708498 0.076866
v -0.066568 0.708498 0.038433
vn 0.5000 -0.0000 -0.8660
vn 1.0000 -0.0000 -0.0000
vn 0.5000 -0.0000 0.8660
vn -0.5000 -0.0000 0.8660
vn -1.0000 -0.0000 -0.0000
vn -0.5000 -0.0000 -0.8660
vn -0.0000 -1.0000 -0.0000
vn -0.3289 0.7532 -0.5697
vn 0.3289 0.7532 -0.5697
vn 0.3289 0.7532 0.5697
vn -0.6578 0.7532 -0.0000
vn 0.6578 0.7532 -0.0000
vn -0.3289 0.7532 0.5697
vn 0.6071 -0.7947 -0.0000
vn -0.4516 0.7374 0.5024
vn 0.7002 -0.6617 -0.2680
vn 0.4089 0.6617 -0.6284
vn -0.7240 -0.6617 -0.1947
vn 0.4713 -0.6617 -0.5831
vn 0.9822 -0.1876 -0.0000
vn -0.5746 -0.3304 0.7488
vn -0.4089 -0.6617 0.6284
vn -0.4911 -0.7947 -0.3568
vn -0.8897 -0.3304 -0.3151
vn 0.9921 0.1256 -0.0000
vn -0.7947 -0.1876 0.5773
vn 0.3035 -0.1876 -0.9342
vn -0.0247 0.3304 0.9435
vn -0.9050 0.3304 -0.2680
vn 0.7947 0.1876 -0.5773
vn -0.7002 0.6617 0.2680
vn -0.1876 0.7947 0.5773
vn -0.4516 0.7374 -0.5024
vn 0.8897 0.3304 -0.3151
vn 0.0385 0.6617 -0.7488
vn 0.7002 -0.6617 0.2680
vn 0.7240 0.6617 0.1947
vn 0.7240 0.6617 -0.1947
vn 0.2727 0.7426 -0.6118
vn -0.3035 0.1876 0.9342
vn -0.1024 0.9435 0.3151
vn 0.2727 0.7426 0.6118
vn 0.3066 0.1256 -0.9435
vn 0.0385 0.6617 0.7488
vn 0.6679 0.7443 -0.0000
vn -0.3313 0.9435 -0.0000
vn -0.0247 0.3304 -0.9435
vn -0.5746 -0.3304 -0.7488
vn -0.5346 0.3304 -0.7779
vn 0.5746 0.3304 -0.7488
vn 0.9050 -0.3304 0.2680
vn 0.4911 0.7947 0.3568
vn -0.9822 0.1876 -0.0000
vn 0.0247 -0.3304 0.9435
vn -0.5346 0.3304 0.7779
vn 0.5746 0.3304 0.7488
vn -0.8897 -0.3304 0.3151
vn 0.8897 0.3304 0.3151
vn 0.0247 -0.3304 -0.9435
vn 0.5346 -0.3304 -0.7779
vn -0.6071 0.7947 -0.0000
vn 0.2680 0.9435 0.1947
vn 0.8026 -0.1256 0.5831
vn 0.3035 -0.1876 0.9342
vn -0.9050 0.3304 0.2680
vn -0.3066 -0.1256 0.9435
vn -0.8026 0.1256 -0.5831
vn 0.7947 0.1876 0.5773
vn -0.9921 -0.1256 -0.0000
vn -0.0385 -0.6617 -0.7488
vn -0.8026 0.1256 0.5831
vn 0.4089 0.6617 0.6284
vn -0.4911 -0.7947 0.3568
vn -0.3035 0.1876 -0.9342
vn 0.3066 0.1256 0.9435
vn 0.8026 -0.1256 -0.5831
vn 0.5346 -0.3304 0.7779
vn 0.9050 -0.3304 -0.2680
vn -0.3066 -0.1256 -0.9435
vn -0.7947 -0.1876 -0.5773
vn 0.1876 -0.7947 -0.5773
vn -0.7002 0.6617 -0.2680
vn -0.4089 -0.6617 -0.6284
vn 0.4911 0.7947 -0.3568
vn -0.7240 -0.6617 0.1947
vn -0.4713 0.6617 0.5831
vn 0.2680 0.9435 -0.1947
vn -0.1024 0.9435 -0.3151
vn -0.1876 0.7947 -0.5773
vn -0.4713 0.6617 -0.5831
vn -0.0385 -0.6617 0.7488
vn 0.1876 -0.7947 0.5773
vn 0.4713 -0.6617 0.5831
vn -0.9914 0.1310 -0.0000
vn 0.0393 0.9992 -0.0000
vn 0.0121 0.9992 -0.0373
vn -0.0317 0.9992 -0.0231
vn -0.0317 0.9992 0.0231
vn 0.0121 0.9992 0.0373
vn 0.8093 0.5874 -0.0000
vn -0.4047 0.5874 -0.7009
vn 0.4047 0.5874 -0.7009
vn 0.4047 0.5874 0.7009
vn -0.4047 0.5874 0.7009
vn -0.8093 0.5874 -0.0000
vn -0.3102 -0.9507 -0.0000
vn -0.1551 -0.9507 0.2686
vn 0.1551 -0.9507 0.2686
vn 0.1551 -0.9507 -0.2686
vn -0.1551 -0.9507 -0.2686
vn 0.3102 -0.9507 -0.0000
vn 0.9967 0.0812 -0.0000
vn -0.4983 0.0812 -0.8632
vn 0.4984 0.0812 -0.8632
vn 0.4984 0.0812 0.8632
vn -0.4984 0.0812 0.8632
vn -0.9967 0.0812 -0.0000
vn -0.1551 0.9507 0.2686
vn 0.1551 0.9507 0.2686
vn 0.3102 0.9507 -0.0000
vn 0.1551 0.9507 -0.2686
vn -0.1551 0.9507 -0.2686
vn -0.3102 0.9507 -0.0000
vn 0.4513 -0.4304 -0.7817
vn -0.9027 -0.4304 -0.0000
vn -0.4513 -0.4304 0.7817
vn -0.4513 -0.4304 -0.7817
vn 0.4513 -0.4304 0.7817
vn 0.9027 -0.4304 -0.0000
vn 0.4225 0.5346 -0.7319
vn -0.4225 0.5346 0.7319
vn -0.4225 0.5346 -0.7319
vn -0.8451 0.5346 -0.0000
vn 0.4225 0.5346 0.7319
vn 0.8451 0.5346 -0.0000
vn 0.1222 0.9697 -0.2116
vn -0.1222 0.9697 -0.2116
vn -0.2443 0.9697 -0.0000
vn -0.1222 0.9697 0.2116
vn 0.1222 0.9697 0.2116
vn 0.2443 0.9697 -0.0000
vt 1.000000 0.500000
vt -0.000000 0.500000
vt 0.750000 0.490000
vt -0.000000 1.000000
vt 1.000000 1.000000
vt 0.833333 0.500000
vt 0.957846 0.370000
vt 0.833333 1.000000
vt 0.666667 0.500000
vt 0.957846 0.130000
vt 0.666667 1.000000
vt 0.500000 0.500000
vt 0.750000 0.010000
vt 0.500000 1.000000
vt 0.333333 0.500000
vt 0.542154 0.130000
vt 0.333333 1.000000
vt 0.166667 0.500000
vt 0.542154 0.370000
vt 0.166667 1.000000
vt 0.833333 1.000000
vt -0.000000 1.000000
vt 1.000000 1.000000
vt 0.666667 1.000000
vt 0.500000 1.000000
vt 0.333333 1.000000
vt 0.166667 1.000000
vt 0.833333 1.000000
vt -0.000000 1.000000
vt 1.000000 1.000000
vt 0.666667 1.000000
vt 0.500000 1.000000
vt 0.333333 1.000000
vt 0.166667 1.000000
vt 0.636364 0.314921
vt 0.590909 0.236191
vt 0.681818 0.236191
vt 0.318182 0.393651
vt 0.409092 0.393651
vt 0.772727 0.393651
vt 0.681818 0.393651
vt 0.500000 0.393651
vt 0.590909 0.393651
vt 0.818182 0.314921
vt 0.454546 0.314921
vt 0.136365 0.393651
vt 0.227273 0.393651
vt 0.500000 0.236191
vt 0.272728 0.314921
vt 0.090910 0.314921
vt 0.045455 0.236191
vt 0.954545 0.236191
vt 0.772727 0.236191
vt 0.227273 0.236191
vt 0.863636 0.236191
vt 0.363637 0.157461
vt 0.409092 0.236191
vt 0.136365 0.236191
vt 0.409092 0.078731
vt 0.500000 0.078731
vt 0.545455 0.157461
vt 0.318182 0.236191
vt 0.227273 0.078731
vt 0.318182 0.078731
vt 0.681818 0.078731
vt 0.590909 0.078731
vt 0.727273 0.157461
vt 0.136365 0.078731
vt 0.954545 0.078731
vt 0.863636 0.078731
vt 0.772727 0.078731
vt 0.909091 0.157461
vt 0.181819 0.157461
vt 0.090910 0.472382
vt 0.818182 0.472382
vt 0.272728 0.472382
vt 0.454546 0.472382
vt 0.636364 0.472382
vt 0.363637 0.314921
vt 0.545455 0.314921
vt 0.727273 0.314921
vt 0.909091 0.314921
vt 0.000000 0.314921
vt 0.181819 0.314921
vt 0.454546 0.157461
vt 0.636364 0.157461
vt 0.818182 0.157461
vt 1.000000 0.157461
vt 0.090910 0.157461
vt 0.272728 0.157461
vt 0.000000 0.000000
vt 0.863636 0.393651
vt 0.045455 0.393651
vt 0.000000 0.000000
vt 0.000000 0.000000
vt 0.000000 0.000000
vt 0.000000 0.000000
vt 0.333333 1.000000
vt 0.500000 1.000000
vt 0.666667 1.000000
vt 0.833333 1.000000
vt -0.000000 1.000000
vt 1.000000 1.000000
vt 0.166667 1.000000
vt 0.166667 1.000000
vt 0.666667 1.000000
vt 1.000000 1.000000
vt 0.833333 1.000000
vt 0.500000 1.000000
vt 0.333333 1.000000
vt 0.333333 1.000000
vt 0.500000 1.000000
vt 0.833333 1.000000
vt -0.000000 1.000000
vt 1.000000 1.000000
vt 0.666667 1.000000
vt 0.166667 1.000000
vt 0.333333 1.000000
vt 0.500000 1.000000
vt 0.833333 1.000000
vt -0.000000 1.000000
vt 1.000000 1.000000
vt 0.666667 1.000000
vt 0.166667 1.000000
vt 0.166667 1.000000
vt 0.666667 1.000000
vt 1.000000 1.000000
vt 0.833333 1.000000
vt 0.500000 1.000000
vt 0.333333 1.000000
vt 0.166667 1.000000
vt 0.666667 1.000000
vt 1.000000 1.000000
vt 0.833333 1.000000
vt 0.500000 1.000000
vt 0.333333 1.000000
vt 0.166667 1.000000
vt 0.666667 1.000000
vt 1.000000 1.000000
vt 0.833333 1.000000
vt 0.500000 1.000000
vt 0.333333 1.000000
s 0
usemtl Material.005
f 1/1/1 2/5/1 4/8/1 3/6/1
f 3/6/2 4/8/2 6/11/2 5/9/2
f 5/9/3 6/11/3 8/14/3 7/12/3
f 7/12/4 8/14/4 10/17/4 9/15/4
f 9/15/5 10/17/5 12/20/5 11/18/5
f 11/18/6 12/20/6 2/4/6 1/2/6
f 1/3/7 3/7/7 5/10/7 7/13/7 9/16/7 11/19/7
f 14/22/8 18/27/8 24/34/8 20/29/8
f 13/21/9 14/23/9 20/30/9 19/28/9
f 16/25/10 15/24/10 21/31/10 22/32/10
f 18/27/11 17/26/11 23/33/11 24/34/11
f 15/24/12 13/21/12 19/28/12 21/31/12
f 17/26/13 16/25/13 22/32/13 23/33/13
f 41/56/14 47/64/14 44/59/14
f 23/33/15 22/32/15 69/96/15 70/97/15
f 41/56/16 44/59/16 60/85/16
f 32/45/17 56/80/17 30/42/17
f 51/71/18 62/87/18 49/67/18
f 44/60/19 45/61/19 60/85/19
f 46/62/20 41/56/20 42/57/20
f 52/72/21 63/88/21 37/52/21
f 50/69/22 63/88/22 52/72/22
f 48/65/23 51/71/23 49/67/23
f 49/67/24 62/87/24 38/53/24
f 46/62/25 42/57/25 55/79/25
f 40/55/26 52/72/26 37/52/26
f 34/48/27 45/61/27 26/36/27
f 43/58/28 59/84/28 36/50/28
f 38/53/29 31/44/29 57/81/29
f 42/57/30 34/48/30 32/45/30
f 31/44/31 58/82/31 66/92/31
f 66/93/32 36/50/32 33/46/32
f 20/30/33 24/34/33 70/97/33 68/95/33
f 42/57/34 32/45/34 55/79/34
f 56/80/35 25/35/35 30/43/35
f 64/90/36 47/64/36 41/56/36
f 35/49/37 55/79/37 28/38/37
f 55/79/38 32/45/38 28/39/38
f 19/28/39 20/30/39 68/95/39 65/91/39
f 37/51/40 43/58/40 36/50/40
f 66/93/41 33/46/41 54/74/41
f 22/32/42 21/31/42 67/94/42 69/96/42
f 34/48/43 26/36/43 56/80/43
f 36/50/44 59/84/44 33/46/44
f 21/31/45 19/28/45 65/91/45 67/94/45
f 29/40/46 66/92/46 54/75/46
f 26/36/47 25/35/47 56/80/47
f 61/86/48 49/67/48 27/37/48
f 27/37/49 57/81/49 25/35/49
f 34/48/50 56/80/50 32/45/50
f 64/90/51 41/56/51 46/62/51
f 33/47/52 35/49/52 28/38/52
f 38/53/53 40/55/53 31/44/53
f 63/89/54 53/73/54 43/58/54
f 37/51/55 36/50/55 58/83/55
f 39/54/56 35/49/56 59/84/56
f 62/87/57 52/72/57 40/55/57
f 46/62/58 55/79/58 35/49/58
f 45/61/59 61/86/59 26/36/59
f 60/85/60 45/61/60 34/48/60
f 29/40/61 31/44/61 66/92/61
f 33/47/62 28/38/62 54/76/62
f 64/90/63 46/62/63 39/54/63
f 43/58/64 53/73/64 39/54/64
f 40/55/65 58/82/65 31/44/65
f 63/89/66 43/58/66 37/51/66
f 27/37/67 38/53/67 57/81/67
f 39/54/68 46/62/68 35/49/68
f 62/87/69 40/55/69 38/53/69
f 48/66/70 61/86/70 45/61/70
f 40/55/71 37/52/71 58/82/71
f 59/84/72 35/49/72 33/47/72
f 51/70/73 50/69/73 52/72/73
f 26/36/74 27/37/74 25/35/74
f 43/58/75 39/54/75 59/84/75
f 60/85/76 34/48/76 42/57/76
f 53/73/77 64/90/77 39/54/77
f 41/56/78 60/85/78 42/57/78
f 61/86/79 27/37/79 26/36/79
f 27/37/80 49/67/80 38/53/80
f 44/60/81 48/66/81 45/61/81
f 57/81/82 31/44/82 29/40/82
f 48/65/83 49/67/83 61/86/83
f 28/39/84 32/45/84 30/42/84
f 51/70/85 52/72/85 62/87/85
f 58/83/86 36/50/86 66/93/86
f 28/39/87 30/42/87 54/77/87
f 30/43/88 29/41/88 54/78/88
f 30/43/89 25/35/89 29/41/89
f 25/35/90 57/81/90 29/41/90
f 50/68/91 53/73/91 63/89/91
f 50/68/92 47/63/92 53/73/92
f 47/63/93 64/90/93 53/73/93
f 23/33/94 70/97/94 24/34/94
f 47/64/95 67/94/95 65/91/95 44/59/95
f 68/95/96 48/66/96 44/60/96 65/91/96
f 48/66/97 68/95/97 70/97/97 51/71/97
f 51/71/98 70/97/98 69/96/98 50/69/98
f 50/69/99 69/96/99 67/94/99 47/64/99
f 6/11/100 4/8/100 74/101/100 73/100/100
f 2/4/101 12/20/101 76/104/101 75/102/101
f 4/8/102 2/5/102 75/103/102 74/101/102
f 8/14/103 6/11/103 73/100/103 72/99/103
f 10/17/104 8/14/104 72/99/104 71/98/104
f 12/20/105 10/17/105 71/98/105 76/104/105
f 80/108/2 98/128/2 96/126/2 78/106/2
f 79/107/1 97/127/1 98/128/1 80/108/1
f 82/110/5 100/130/5 95/125/5 77/105/5
f 81/109/4 99/129/4 100/130/4 82/110/4
f 78/106/3 96/126/3 99/129/3 81/109/3
f 77/105/6 95/125/6 97/127/6 79/107/6
f 94/124/106 89/118/106 83/111/106 88/117/106
f 89/118/107 90/119/107 84/112/107 83/111/107
f 90/119/108 93/123/108 87/116/108 84/112/108
f 91/120/109 92/122/109 86/115/109 85/113/109
f 92/121/110 94/124/110 88/117/110 86/114/110
f 93/123/111 91/120/111 85/113/111 87/116/111
f 73/100/112 74/101/112 91/120/112 93/123/112
f 75/102/113 76/104/113 94/124/113 92/121/113
f 74/101/114 75/103/114 92/122/114 91/120/114
f 72/99/115 73/100/115 93/123/115 90/119/115
f 71/98/116 72/99/116 90/119/116 89/118/116
f 76/104/117 71/98/117 89/118/117 94/124/117
f 82/110/118 83/111/118 84/112/118 81/109/118
f 81/109/119 84/112/119 87/116/119 78/106/119
f 78/106/120 87/116/120 85/113/120 80/108/120
f 80/108/121 85/113/121 86/115/121 79/107/121
f 79/107/122 86/115/122 88/117/122 77/105/122
f 77/105/123 88/117/123 83/111/123 82/110/123
f 97/127/124 103/133/124 104/134/124 98/128/124
f 100/130/125 106/136/125 101/131/125 95/125/125
f 99/129/126 105/135/126 106/136/126 100/130/126
f 95/125/127 101/131/127 103/133/127 97/127/127
f 96/126/128 102/132/128 105/135/128 99/129/128
f 98/128/129 104/134/129 102/132/129 96/126/129
f 103/133/130 109/139/130 110/140/130 104/134/130
f 105/135/131 111/141/131 112/142/131 106/136/131
f 101/131/132 107/137/132 109/139/132 103/133/132
f 106/136/133 112/142/133 107/137/133 101/131/133
f 102/132/134 108/138/134 111/141/134 105/135/134
f 104/134/135 110/140/135 108/138/135 102/132/135
f 13/21/136 110/140/136 109/139/136 14/23/136
f 14/23/137 109/139/137 107/137/137 18/27/137
f 18/27/138 107/137/138 112/142/138 17/26/138
f 17/26/139 112/142/139 111/141/139 16/25/139
f 16/25/140 111/141/140 108/138/140 15/24/140
f 15/24/141 108/138/141 110/140/141 13/21/141
