# Blender 3.3.1
# www.blender.org
mtllib rook.mtl
o Rook
v -0.000000 0.000000 -0.156884
v -0.000000 0.411540 -0.156884
v 0.135866 0.000000 -0.078442
v 0.135866 0.411540 -0.078442
v 0.135866 0.000000 0.078442
v 0.135866 0.411540 0.078442
v -0.000000 0.000000 0.156884
v -0.000000 0.411540 0.156884
v -0.135866 0.000000 0.078442
v -0.135866 0.411540 0.078442
v -0.135866 0.000000 -0.078442
v -0.135866 0.411540 -0.078442
v -0.135866 0.470177 0.078442
v -0.135866 0.470177 -0.078442
v -0.000000 0.470177 -0.156884
v 0.135866 0.470177 -0.078442
v 0.135866 0.470177 0.078442
v -0.000000 0.470177 0.156884
v -0.000000 0.411540 -0.132113
v 0.114413 0.411540 -0.066057
v 0.114413 0.411540 0.066057
v -0.000000 0.411540 0.132113
v -0.114413 0.411540 0.066057
v -0.114413 0.411540 -0.066057
v 0.114413 0.470177 -0.066057
v -0.000000 0.470177 -0.132113
v 0.114413 0.470177 0.066057
v -0.000000 0.470177 0.132113
v -0.114413 0.470177 0.066057
v -0.114413 0.470177 -0.066057
v 0.135866 0.447440 0.078442
v 0.135866 0.447440 -0.078442
v -0.135866 0.447440 0.078442
v -0.000000 0.447440 0.156884
v -0.000000 0.447440 -0.156884
v -0.135866 0.447440 -0.078442
v -0.114413 0.447440 0.066057
v -0.114413 0.447440 -0.066057
v -0.000000 0.447440 0.132113
v 0.114413 0.447440 0.066057
v 0.114413 0.447440 -0.066057
v -0.000000 0.447440 -0.132113
v -0.000000 0.055905 -0.156884
v 0.135866 0.055905 -0.078442
v 0.135866 0.055905 0.078442
v -0.000000 0.055905 0.156884
v -0.135866 0.055905 0.078442
v -0.135866 0.055905 -0.078442
v -0.000000 0.114542 -0.109819
v 0.095106 0.114542 -0.054909
v 0.095106 0.114542 0.054909
v -0.000000 0.114542 0.109819
v -0.095106 0.114542 0.054909
v -0.095106 0.114542 -0.054909
v -0.000000 0.352903 -0.109819
v 0.095106 0.352903 -0.054909
v 0.095106 0.352903 0.054909
v -0.000000 0.352903 0.109819
v -0.095106 0.352903 0.054909
v -0.095106 0.352903 -0.054909
vn 0.4106 -0.5708 -0.7111
vn 0.8211 -0.5708 -0.0000
vn 0.4106 -0.5708 0.7111
vn -0.4106 -0.5708 0.7111
vn -0.8211 -0.5708 -0.0000
vn -0.4106 -0.5708 -0.7111
vn -0.0000 -1.0000 -0.0000
vn -1.0000 -0.0000 -0.0000
vn 0.5000 -0.0000 -0.8660
vn 0.5000 -0.0000 0.8660
vn -0.5000 -0.0000 0.8660
vn -0.5000 -0.0000 -0.8660
vn 0.9892 -0.0000 0.1469
vn -0.0000 1.0000 -0.0000
vn 1.0000 -0.0000 -0.0000
vn -0.4106 0.5708 -0.7111
vn -0.8211 0.5708 -0.0000
vn -0.4106 0.5708 0.7111
vn 0.4106 0.5708 0.7111
vn 0.8211 0.5708 -0.0000
vn 0.4106 0.5708 -0.7111
vt 0.750000 0.490000
vt -0.000000 0.500000
vt 1.000000 0.500000
vt -0.000000 1.000000
vt 1.000000 1.000000
vt 0.957846 0.370000
vt 0.833333 0.500000
vt 0.833333 1.000000
vt 0.957846 0.130000
vt 0.666667 0.500000
vt 0.666667 1.000000
vt 0.750000 0.010000
vt 0.500000 0.500000
vt 0.500000 1.000000
vt 0.542154 0.130000
vt 0.333333 0.500000
vt 0.042154 0.130000
vt 0.333333 1.000000
vt 0.542154 0.370000
vt 0.166667 0.500000
vt 0.042154 0.370000
vt 0.166667 1.000000
vt 0.000000 0.000000
vt 0.042154 0.130000
vt 0.042154 0.370000
vt 0.000000 0.000000
vt 1.000000 1.000000
vt 0.833333 1.000000
vt 0.666667 1.000000
vt 0.500000 1.000000
vt 0.000000 0.000000
vt 0.000000 0.000000
vt 0.000000 0.000000
vt 0.000000 0.000000
vt 0.042154 0.130000
vt 0.000000 0.000000
vt 0.000000 0.000000
vt 0.042154 0.370000
vt 0.000000 0.000000
vt 0.457846 0.370000
vt 0.000000 0.000000
vt 0.000000 0.000000
vt 0.000000 0.000000
vt 0.250000 0.010000
vt 0.000000 0.000000
vt 0.042154 0.370000
vt 0.000000 0.000000
vt 0.666667 1.000000
vt 0.833333 1.000000
vt 0.000000 0.000000
vt 0.042154 0.130000
vt 0.333333 1.000000
vt 0.000000 0.000000
vt 0.500000 1.000000
vt -0.000000 1.000000
vt 1.000000 1.000000
vt 0.042154 0.370000
vt 0.166667 1.000000
vt 0.000000 0.000000
vt 0.000000 0.000000
vt 0.042154 0.370000
vt 0.000000 0.000000
vt 0.000000 0.000000
vt 0.000000 0.000000
vt 0.000000 0.000000
vt -0.000000 0.546608
vt 1.000000 0.546608
vt 0.833333 0.546608
vt 0.666667 0.546608
vt 0.500000 0.546608
vt 0.333333 0.546608
vt 0.166667 0.546608
vt -0.000000 0.586763
vt 1.000000 0.586763
vt 0.833333 0.586763
vt 0.666667 0.586763
vt 0.500000 0.586763
vt 0.333333 0.586763
vt 0.166667 0.586763
vt -0.000000 0.935077
vt 1.000000 0.935077
vt 0.833333 0.935077
vt 0.666667 0.935077
vt 0.500000 0.935077
vt 0.333333 0.935077
vt 0.166667 0.935077
s 0
f 55/81/1 2/5/1 4/8/1 56/82/1
f 56/82/2 4/8/2 6/11/2 57/83/2
f 57/83/3 6/11/3 8/14/3 58/84/3
f 58/84/4 8/14/4 10/18/4 59/85/4
f 59/85/5 10/18/5 12/22/5 60/86/5
f 60/86/6 12/22/6 2/4/6 55/80/6
f 1/1/7 3/6/7 5/9/7 7/12/7 9/15/7 11/19/7
f 12/21/8 10/17/8 13/24/8 14/25/8
f 2/5/9 15/27/9 16/28/9 4/8/9
f 6/11/10 17/29/10 18/30/10 8/14/10
f 19/31/11 20/32/11 25/40/11 26/41/11
f 21/33/12 22/34/12 28/44/12 27/42/12
f 12/21/9 14/25/9 30/46/9 24/38/9
f 30/46/13 29/45/13 13/24/13 10/17/13 23/35/13 24/38/13
f 30/47/14 14/26/14 13/23/14 29/45/14
f 13/24/12 29/45/12 23/36/12 10/17/12
f 18/30/8 28/43/8 22/34/8 8/14/8
f 6/11/9 21/33/9 27/42/9 17/29/9
f 17/29/14 27/42/14 28/44/14 18/30/14
f 16/28/10 25/39/10 20/32/10 4/8/10
f 2/5/8 19/31/8 26/41/8 15/27/8
f 15/27/14 26/41/14 25/40/14 16/28/14
f 8/14/15 22/34/15 39/62/15 34/54/15
f 21/33/11 6/11/11 31/48/11 40/63/11
f 24/37/10 19/31/10 42/65/10 38/60/10
f 37/59/14 33/50/14 34/53/14 39/62/14
f 35/56/14 36/57/14 38/61/14 42/65/14
f 32/49/14 41/64/14 40/63/14 31/48/14
f 6/11/15 4/8/15 32/49/15 31/48/15
f 20/32/8 21/33/8 40/63/8 41/64/8
f 23/36/12 10/17/12 33/51/12 37/59/12
f 12/21/11 24/38/11 38/61/11 36/57/11
f 22/34/9 23/36/9 37/59/9 39/62/9
f 2/4/12 12/22/12 36/58/12 35/55/12
f 19/31/15 2/5/15 35/56/15 42/65/15
f 10/18/11 8/14/11 34/54/11 33/52/11
f 4/8/12 20/32/12 41/64/12 32/49/12
f 20/32/14 19/31/14 24/38/14 23/36/14 22/34/14 21/33/14
f 11/20/12 48/72/12 43/66/12 1/2/12
f 9/16/8 47/71/8 48/72/8 11/20/8
f 7/13/11 46/70/11 47/71/11 9/16/11
f 5/10/10 45/69/10 46/70/10 7/13/10
f 3/7/15 44/68/15 45/69/15 5/10/15
f 1/3/9 43/67/9 44/68/9 3/7/9
f 48/72/16 54/79/16 49/73/16 43/66/16
f 47/71/17 53/78/17 54/79/17 48/72/17
f 46/70/18 52/77/18 53/78/18 47/71/18
f 45/69/19 51/76/19 52/77/19 46/70/19
f 44/68/20 50/75/20 51/76/20 45/69/20
f 43/67/21 49/74/21 50/75/21 44/68/21
f 54/79/12 60/86/12 55/80/12 49/73/12
f 53/78/8 59/85/8 60/86/8 54/79/8
f 52/77/11 58/84/11 59/85/11 53/78/11
f 51/76/10 57/83/10 58/84/10 52/77/10
f 50/75/15 56/82/15 57/83/15 51/76/15
f 49/74/9 55/81/9 56/82/9 50/75/9
